PathFileType	4	(X/Y/Z)	c:/Users/goper/Files/vsCode/490R/osim_files/C11/C11_SSWS_06.trc
DataRate	CameraRate	NumFrames	NumMarkers	Units                	OrigDataRate	OrigDataStartFrame	OrigNumFrames
120.00	120.00	7	36	mm	120.0	802	1282
                Frame#	Time	LPSI			LASI			LTH1			LTH2			LTH3			LTH4			LLFE			LMFE			LSH1			LSH2			LSH3			LSH4			LLMA			LMMA			LCAL			LMTP			LTOE			LMTP			RPSI			RASI			RTH1			RTH2			RTH3			RTH4			RLFE			RMFE			RSH1			RSH2			RSH3			RSH4			RLMA			RMMA			RCAL			RMTP			RTOE			RMTP		
		X1	Y1	Z1	X2	Y2	Z2	X3	Y3	Z3	X4	Y4	Z4	X5	Y5	Z5	X6	Y6	Z6	X7	Y7	Z7	X8	Y8	Z8	X9	Y9	Z9	X10	Y10	Z10	X11	Y11	Z11	X12	Y12	Z12	X13	Y13	Z13	X14	Y14	Z14	X15	Y15	Z15	X16	Y16	Z16	X17	Y17	Z17	X18	Y18	Z18	X19	Y19	Z19	X20	Y20	Z20	X21	Y21	Z21	X22	Y22	Z22	X23	Y23	Z23	X24	Y24	Z24	X25	Y25	Z25	X26	Y26	Z26	X27	Y27	Z27	X28	Y28	Z28	X29	Y29	Z29	X30	Y30	Z30	X31	Y31	Z31	X32	Y32	Z32	X33	Y33	Z33	X34	Y34	Z34	X35	Y35	Z35	X36	Y36	Z36

802	6.67500	-1886.63782	998.53668	265.22794	-2063.31152	1003.85767	330.22278	-2177.35205	654.13904	386.30981	-2194.81445	610.89185	379.15927	-2123.68164	627.30109	376.37958	-2149.41772	587.29425	373.94644	-2191.99707	540.86450	370.72427	-2209.88306	543.73718	261.56439	-2145.29370	443.41229	392.30222	-2146.23608	400.32370	396.53528	-2207.26367	438.89197	396.57520	-2199.24707	394.64929	399.57077	-2157.90015	124.03455	365.12338	-2162.06128	122.89272	274.79556	-2104.72485	85.11658	308.14981	-2264.68164	68.23387	406.82468	-2341.62817	86.79844	345.98322	-2307.58032	64.88734	300.36176	-1892.24451	1014.44922	180.11613	-2056.78760	989.54034	98.48985	-1952.18079	629.75183	80.13989	-1953.37341	586.15045	88.65362	-2013.63892	625.04187	94.95085	-2005.92334	584.24457	100.09772	-1960.77051	502.50739	111.70778	-1930.82947	495.43460	224.51347	-1880.65479	399.11688	102.13884	-1880.01306	353.37305	108.93780	-1942.21008	389.16104	111.18910	-1932.47437	344.11407	115.00747	-1863.54004	94.83132	183.11929	-1889.80420	108.85523	278.45874	-1801.38306	61.10176	239.55144	-2018.44836	52.27876	258.45404	-2021.76697	64.44147	207.86729	-1978.87561	42.06538	146.60262
803	6.68333	-1895.55981	997.68915	265.39798	-2072.60400	1002.54163	329.86282	-2182.90430	650.87097	386.15030	-2200.10352	607.53369	379.25061	-2129.14697	624.38458	375.40933	-2154.68286	584.09717	373.33585	-2198.69727	537.71533	371.38455	-2216.17261	540.70825	262.27698	-2156.81079	437.47281	392.52127	-2159.36597	392.85876	395.80862	-2218.76880	435.88251	396.90341	-2213.07080	391.56027	399.62210	-2188.28979	118.83407	363.26447	-2184.50293	117.04865	273.95013	-2136.99927	77.66846	306.23553	-2298.03003	68.54546	404.18185	-2373.44189	91.82106	343.32645	-2340.57690	68.26965	297.56808	-1900.90601	1013.55298	180.45343	-2065.21143	988.46466	98.25574	-1957.31055	629.40973	79.95565	-1958.12463	585.88318	88.48912	-2019.04932	624.52399	94.83493	-2010.57434	583.53369	99.92036	-1964.46704	502.06619	111.45859	-1934.83728	495.23398	224.46701	-1883.32019	399.25290	102.10339	-1882.41296	353.60587	108.85774	-1944.91907	388.85867	111.09997	-1934.78564	343.82208	114.91046	-1863.74719	94.93974	183.18726	-1889.95898	108.86765	278.53009	-1801.51160	61.23812	239.61278	-2018.47412	52.09126	258.52344	-2021.88159	64.19479	207.87025	-1978.94519	42.02171	146.52686
804	6.69167	-1904.74866	996.69397	265.60278	-2082.12817	1001.16138	329.68185	-2187.99268	647.09937	386.18372	-2204.87256	603.73523	379.55890	-2134.14746	621.05054	374.70615	-2159.61011	580.60229	372.94919	-2204.95776	534.08069	372.19177	-2222.15063	537.11841	263.09204	-2167.29150	431.08914	392.15594	-2172.55371	386.73645	395.51328	-2229.61841	432.99841	397.04730	-2226.29712	388.00647	398.66785	-2218.44263	114.64093	360.87473	-2206.33813	111.42047	273.01437	-2169.14746	71.31062	303.76053	-2330.90015	70.11684	401.08896	-2405.28369	98.63136	340.68002	-2372.99976	73.19159	294.33075	-1909.74097	1012.51099	180.77888	-2073.61450	987.24982	98.09724	-1962.61414	629.17609	79.82146	-1963.03369	585.59784	88.29171	-2024.25256	623.75098	94.69363	-2016.04639	582.74274	100.19216	-1968.34485	501.72989	111.34499	-1938.87964	495.01022	224.32230	-1886.15552	399.48141	102.13582	-1884.33008	353.99063	109.04111	-1947.57837	388.54300	110.95457	-1937.14099	343.66248	114.70931	-1863.99792	95.16933	183.21516	-1890.25208	108.88000	278.46918	-1801.71143	61.45361	239.68942	-2018.24878	52.00505	258.83307	-2022.04773	63.95337	207.92230	-1979.07166	42.13723	146.21808
805	6.70000	-1914.15576	995.63696	265.86307	-2091.80835	999.65387	329.44537	-2193.39673	643.15125	386.58298	-2209.46216	599.59216	380.25034	-2139.04883	617.41321	374.41391	-2164.18213	576.68335	373.06796	-2210.81128	530.30286	373.07858	-2230.33618	534.40363	263.76755	-2177.73486	424.78430	391.80685	-2185.36963	380.75027	394.77319	-2239.74072	429.97247	397.20016	-2238.80127	384.91681	398.45499	-2248.03613	111.57983	358.02737	-2227.57251	106.00629	271.99210	-2200.64014	66.59277	300.85654	-2362.93140	73.01603	397.43515	-2435.18188	106.11539	337.01120	-2404.48560	79.65976	290.64459	-1918.63208	1011.46246	181.13000	-2082.32544	986.16437	97.87823	-1967.83569	629.04584	79.65759	-1967.79663	585.50769	88.13709	-2029.47229	622.94214	94.53204	-2020.71973	582.11261	99.86695	-1972.31213	501.33344	111.19582	-1943.04285	495.06473	224.21431	-1888.98010	399.84454	102.15566	-1886.69470	354.44229	109.04731	-1950.35437	388.30319	110.78511	-1939.39246	343.62668	114.58693	-1864.27197	95.43433	183.31581	-1890.64941	108.90417	278.15680	-1801.90588	61.76153	239.74271	-2018.40454	51.95610	258.82047	-2022.18213	63.78085	207.93799	-1979.11926	42.11662	146.18416
806	6.70833	-1923.64319	994.29352	266.08514	-2101.56079	998.04565	329.14819	-2197.68970	638.67316	386.96417	-2213.93652	595.02368	381.16525	-2143.58936	613.57489	374.89575	-2168.33594	572.68237	373.79617	-2216.23022	526.02594	374.12585	-2235.98413	530.12927	264.79114	-2187.64136	418.43060	391.25769	-2197.55566	374.73538	393.77338	-2249.59033	426.62485	397.61636	-2250.68701	381.62183	398.13229	-2276.41382	109.62247	354.35037	-2248.21118	100.80419	270.88693	-2231.87256	62.71179	296.83453	-2393.78442	77.13862	393.34436	-2463.99414	114.96100	333.27963	-2434.60229	87.41420	286.61075	-1927.70422	1010.12567	181.45355	-2091.03345	984.88434	97.63282	-1973.19360	628.89227	79.44576	-1972.19458	585.87531	87.83521	-2034.89197	622.18500	94.32671	-2025.57031	581.35803	99.52490	-1976.34143	500.87817	110.99422	-1947.15686	495.07196	224.06860	-1891.76416	400.19281	102.12024	-1889.13672	354.79169	108.97861	-1953.14355	388.01059	110.55331	-1941.67407	343.45566	114.41194	-1864.52393	95.73241	183.39723	-1891.08716	108.84353	277.57880	-1802.01733	62.10656	239.77902	-2018.50977	51.88670	258.77481	-2022.31555	63.62603	207.92245	-1979.18152	42.09942	146.15326
807	6.71667	-1933.45813	992.73859	266.21866	-2111.58105	996.33905	328.75067	-2202.57495	634.17975	387.94165	-2218.46924	590.37201	382.34186	-2148.38184	609.62073	375.80624	-2172.78760	568.42035	374.91669	-2221.48706	521.54163	375.59869	-2241.22388	525.71771	265.93347	-2197.82202	409.88953	392.56927	-2209.42334	368.80298	392.47635	-2258.39185	423.21848	397.70255	-2263.17163	379.22513	396.82822	-2304.31738	108.59070	350.04135	-2268.26001	95.81233	269.70267	-2262.23877	60.17281	291.97101	-2423.16992	82.26419	388.77066	-2491.06006	124.92541	329.34805	-2463.24707	96.48779	282.19391	-1936.91296	1008.73016	181.77870	-2099.93286	983.56360	97.31992	-1978.58386	628.58118	79.25365	-1977.27441	585.63617	87.60408	-2040.39880	621.29871	93.99921	-2030.61401	580.59204	99.11254	-1980.44727	500.50449	110.57880	-1951.64868	494.95999	223.77785	-1894.71985	400.52130	102.00121	-1891.73413	355.11304	108.94380	-1956.02783	387.62790	110.32135	-1944.23474	343.20364	114.19917	-1864.74316	95.96377	183.48987	-1890.77942	109.68357	278.42117	-1802.24158	62.45636	239.79512	-2018.69006	51.80719	258.71448	-2022.45020	63.45346	207.88377	-1979.20605	42.05807	146.11322
808	6.72500	-1943.41272	990.93256	266.47415	-2121.77173	994.45813	328.38089	-2207.99243	629.77344	389.17725	-2223.37305	585.78033	383.71844	-2153.50024	605.75446	377.06805	-2177.43945	564.30011	376.23755	-2226.80273	516.88025	377.38083	-2246.23096	521.34552	267.07037	-2207.74243	404.05502	391.98212	-2220.99121	362.89536	390.99832	-2267.18042	419.54825	398.17386	-2273.71802	375.57513	396.18942	-2330.74219	108.36637	345.09344	-2287.72461	91.02877	268.44296	-2291.59570	58.75297	286.09171	-2450.77075	88.15154	383.75659	-2516.26172	135.74522	325.34521	-2490.16772	106.61349	277.52863	-1946.38477	1007.04480	182.13387	-2109.08081	982.23425	96.91981	-1984.31262	628.20660	79.08379	-1982.56555	585.30304	87.30171	-2046.09717	620.16150	93.47410	-2035.85840	579.56866	98.61002	-1984.82922	499.90213	110.34252	-1956.44653	494.64609	223.53268	-1898.21985	400.64441	101.99182	-1894.57715	355.33939	108.81448	-1959.23145	387.16541	110.02225	-1946.95728	342.83832	113.93027	-1864.92480	96.20110	183.43706	-1891.16711	109.81461	278.35995	-1802.52722	62.77613	239.78792	-2018.83057	51.64582	258.67819	-2022.42676	63.20598	207.98361	-1979.48254	41.89042	146.09662
